<mxfile host="app.diagrams.net" agent="Mozilla/5.0 (Macintosh; Intel Mac OS X 10_15_7) AppleWebKit/537.36 (KHTML, like Gecko) Chrome/131.0.0.0 Safari/537.36" version="24.9.1">
  <diagram name="第 1 页" id="wu6qRVS1oM_tM8sZcJ77">
    <mxGraphModel dx="995" dy="465" grid="1" gridSize="10" guides="1" tooltips="1" connect="1" arrows="1" fold="1" page="1" pageScale="1" pageWidth="827" pageHeight="1169" math="0" shadow="0">
      <root>
        <mxCell id="0" />
        <mxCell id="1" parent="0" />
        <mxCell id="cAnIm7mQu4dJnn0wb-5Q-1" value="redis" style="rounded=1;whiteSpace=wrap;html=1;fillColor=#fff2cc;strokeColor=#d6b656;" vertex="1" parent="1">
          <mxGeometry x="320" y="170" width="120" height="60" as="geometry" />
        </mxCell>
        <mxCell id="cAnIm7mQu4dJnn0wb-5Q-2" value="mysql" style="rounded=1;whiteSpace=wrap;html=1;fillColor=#e1d5e7;strokeColor=#9673a6;" vertex="1" parent="1">
          <mxGeometry x="110" y="310" width="120" height="60" as="geometry" />
        </mxCell>
        <mxCell id="cAnIm7mQu4dJnn0wb-5Q-3" value="" style="endArrow=classic;html=1;rounded=0;exitX=0.5;exitY=0;exitDx=0;exitDy=0;entryX=0;entryY=0.5;entryDx=0;entryDy=0;" edge="1" parent="1" source="cAnIm7mQu4dJnn0wb-5Q-2" target="cAnIm7mQu4dJnn0wb-5Q-1">
          <mxGeometry width="50" height="50" relative="1" as="geometry">
            <mxPoint x="390" y="330" as="sourcePoint" />
            <mxPoint x="320" y="240" as="targetPoint" />
          </mxGeometry>
        </mxCell>
        <mxCell id="cAnIm7mQu4dJnn0wb-5Q-4" value="取出未爬取的url" style="text;html=1;align=center;verticalAlign=middle;resizable=0;points=[];autosize=1;strokeColor=none;fillColor=none;" vertex="1" parent="1">
          <mxGeometry x="155" y="248" width="110" height="30" as="geometry" />
        </mxCell>
        <mxCell id="cAnIm7mQu4dJnn0wb-5Q-5" value="spider" style="rounded=1;whiteSpace=wrap;html=1;fillColor=#dae8fc;strokeColor=#6c8ebf;" vertex="1" parent="1">
          <mxGeometry x="610" y="310" width="120" height="60" as="geometry" />
        </mxCell>
        <mxCell id="cAnIm7mQu4dJnn0wb-5Q-6" value="" style="endArrow=classic;html=1;rounded=0;exitX=1;exitY=0.5;exitDx=0;exitDy=0;entryX=0;entryY=0.5;entryDx=0;entryDy=0;" edge="1" parent="1" source="cAnIm7mQu4dJnn0wb-5Q-1" target="cAnIm7mQu4dJnn0wb-5Q-5">
          <mxGeometry width="50" height="50" relative="1" as="geometry">
            <mxPoint x="560" y="410" as="sourcePoint" />
            <mxPoint x="610" y="360" as="targetPoint" />
          </mxGeometry>
        </mxCell>
        <mxCell id="cAnIm7mQu4dJnn0wb-5Q-7" value="取出url" style="text;html=1;align=center;verticalAlign=middle;resizable=0;points=[];autosize=1;strokeColor=none;fillColor=none;" vertex="1" parent="1">
          <mxGeometry x="490" y="238" width="60" height="30" as="geometry" />
        </mxCell>
        <mxCell id="cAnIm7mQu4dJnn0wb-5Q-8" value="internet" style="ellipse;whiteSpace=wrap;html=1;fillColor=#ffe6cc;strokeColor=#d79b00;" vertex="1" parent="1">
          <mxGeometry x="840" y="300" width="120" height="80" as="geometry" />
        </mxCell>
        <mxCell id="cAnIm7mQu4dJnn0wb-5Q-10" value="" style="endArrow=classic;html=1;rounded=0;entryX=0;entryY=0;entryDx=0;entryDy=0;exitX=1;exitY=0.25;exitDx=0;exitDy=0;" edge="1" parent="1" source="cAnIm7mQu4dJnn0wb-5Q-5" target="cAnIm7mQu4dJnn0wb-5Q-8">
          <mxGeometry width="50" height="50" relative="1" as="geometry">
            <mxPoint x="510" y="450" as="sourcePoint" />
            <mxPoint x="560" y="400" as="targetPoint" />
          </mxGeometry>
        </mxCell>
        <mxCell id="cAnIm7mQu4dJnn0wb-5Q-11" value="爬取" style="text;html=1;align=center;verticalAlign=middle;resizable=0;points=[];autosize=1;strokeColor=none;fillColor=none;" vertex="1" parent="1">
          <mxGeometry x="755" y="308" width="50" height="30" as="geometry" />
        </mxCell>
        <mxCell id="cAnIm7mQu4dJnn0wb-5Q-12" value="" style="endArrow=classic;html=1;rounded=0;exitX=0;exitY=1;exitDx=0;exitDy=0;entryX=1;entryY=0.75;entryDx=0;entryDy=0;" edge="1" parent="1" source="cAnIm7mQu4dJnn0wb-5Q-8" target="cAnIm7mQu4dJnn0wb-5Q-5">
          <mxGeometry width="50" height="50" relative="1" as="geometry">
            <mxPoint x="670" y="520" as="sourcePoint" />
            <mxPoint x="720" y="470" as="targetPoint" />
          </mxGeometry>
        </mxCell>
        <mxCell id="cAnIm7mQu4dJnn0wb-5Q-13" value="返回html" style="edgeLabel;html=1;align=center;verticalAlign=middle;resizable=0;points=[];" vertex="1" connectable="0" parent="cAnIm7mQu4dJnn0wb-5Q-12">
          <mxGeometry x="-0.0145" y="-3" relative="1" as="geometry">
            <mxPoint as="offset" />
          </mxGeometry>
        </mxCell>
        <mxCell id="cAnIm7mQu4dJnn0wb-5Q-14" value="" style="endArrow=classic;html=1;rounded=0;exitX=0;exitY=0.75;exitDx=0;exitDy=0;entryX=1;entryY=0.75;entryDx=0;entryDy=0;" edge="1" parent="1" source="cAnIm7mQu4dJnn0wb-5Q-5" target="cAnIm7mQu4dJnn0wb-5Q-2">
          <mxGeometry width="50" height="50" relative="1" as="geometry">
            <mxPoint x="210" y="520" as="sourcePoint" />
            <mxPoint x="260" y="470" as="targetPoint" />
          </mxGeometry>
        </mxCell>
        <mxCell id="cAnIm7mQu4dJnn0wb-5Q-15" value="存入mysql" style="text;html=1;align=center;verticalAlign=middle;resizable=0;points=[];autosize=1;strokeColor=none;fillColor=none;" vertex="1" parent="1">
          <mxGeometry x="350" y="328" width="80" height="30" as="geometry" />
        </mxCell>
        <mxCell id="cAnIm7mQu4dJnn0wb-5Q-16" value="mysql" style="rounded=1;whiteSpace=wrap;html=1;fillColor=#e1d5e7;strokeColor=#9673a6;" vertex="1" parent="1">
          <mxGeometry x="100" y="555" width="120" height="60" as="geometry" />
        </mxCell>
        <mxCell id="cAnIm7mQu4dJnn0wb-5Q-17" value="redis" style="rounded=1;whiteSpace=wrap;html=1;fillColor=#fff2cc;strokeColor=#d6b656;" vertex="1" parent="1">
          <mxGeometry x="450" y="440" width="120" height="60" as="geometry" />
        </mxCell>
        <mxCell id="cAnIm7mQu4dJnn0wb-5Q-19" value="取出html" style="text;html=1;align=center;verticalAlign=middle;resizable=0;points=[];autosize=1;strokeColor=none;fillColor=none;" vertex="1" parent="1">
          <mxGeometry x="230" y="630" width="70" height="30" as="geometry" />
        </mxCell>
        <mxCell id="cAnIm7mQu4dJnn0wb-5Q-20" value="分词器" style="rounded=1;whiteSpace=wrap;html=1;fillColor=#dae8fc;strokeColor=#6c8ebf;" vertex="1" parent="1">
          <mxGeometry x="354" y="630" width="120" height="60" as="geometry" />
        </mxCell>
        <mxCell id="cAnIm7mQu4dJnn0wb-5Q-21" value="" style="endArrow=classic;html=1;rounded=0;exitX=1;exitY=0.75;exitDx=0;exitDy=0;entryX=0;entryY=0.5;entryDx=0;entryDy=0;" edge="1" parent="1" source="cAnIm7mQu4dJnn0wb-5Q-16" target="cAnIm7mQu4dJnn0wb-5Q-20">
          <mxGeometry width="50" height="50" relative="1" as="geometry">
            <mxPoint x="470" y="580" as="sourcePoint" />
            <mxPoint x="520" y="530" as="targetPoint" />
          </mxGeometry>
        </mxCell>
        <mxCell id="cAnIm7mQu4dJnn0wb-5Q-22" value="" style="endArrow=classic;html=1;rounded=0;entryX=0.75;entryY=1;entryDx=0;entryDy=0;exitX=1;exitY=0;exitDx=0;exitDy=0;" edge="1" parent="1" source="cAnIm7mQu4dJnn0wb-5Q-20" target="cAnIm7mQu4dJnn0wb-5Q-17">
          <mxGeometry width="50" height="50" relative="1" as="geometry">
            <mxPoint x="350" y="620" as="sourcePoint" />
            <mxPoint x="400" y="570" as="targetPoint" />
          </mxGeometry>
        </mxCell>
        <mxCell id="cAnIm7mQu4dJnn0wb-5Q-23" value="倒排索引结果存入redis" style="edgeLabel;html=1;align=center;verticalAlign=middle;resizable=0;points=[];" vertex="1" connectable="0" parent="cAnIm7mQu4dJnn0wb-5Q-22">
          <mxGeometry x="0.025" y="-6" relative="1" as="geometry">
            <mxPoint as="offset" />
          </mxGeometry>
        </mxCell>
        <mxCell id="cAnIm7mQu4dJnn0wb-5Q-24" value="" style="endArrow=classic;html=1;rounded=0;entryX=0.5;entryY=0;entryDx=0;entryDy=0;exitX=0;exitY=0.5;exitDx=0;exitDy=0;" edge="1" parent="1" source="cAnIm7mQu4dJnn0wb-5Q-17" target="cAnIm7mQu4dJnn0wb-5Q-16">
          <mxGeometry width="50" height="50" relative="1" as="geometry">
            <mxPoint x="470" y="580" as="sourcePoint" />
            <mxPoint x="520" y="530" as="targetPoint" />
          </mxGeometry>
        </mxCell>
        <mxCell id="cAnIm7mQu4dJnn0wb-5Q-25" value="定时存入mysql" style="text;html=1;align=center;verticalAlign=middle;resizable=0;points=[];autosize=1;strokeColor=none;fillColor=none;" vertex="1" parent="1">
          <mxGeometry x="250" y="488" width="100" height="30" as="geometry" />
        </mxCell>
        <mxCell id="cAnIm7mQu4dJnn0wb-5Q-32" value="" style="edgeStyle=orthogonalEdgeStyle;rounded=0;orthogonalLoop=1;jettySize=auto;html=1;" edge="1" parent="1" source="cAnIm7mQu4dJnn0wb-5Q-26" target="cAnIm7mQu4dJnn0wb-5Q-31">
          <mxGeometry relative="1" as="geometry" />
        </mxCell>
        <mxCell id="cAnIm7mQu4dJnn0wb-5Q-26" value="oucsearcher" style="rounded=1;whiteSpace=wrap;html=1;fillColor=#dae8fc;strokeColor=#6c8ebf;" vertex="1" parent="1">
          <mxGeometry x="354" y="850" width="120" height="60" as="geometry" />
        </mxCell>
        <mxCell id="cAnIm7mQu4dJnn0wb-5Q-27" value="Internet" style="ellipse;whiteSpace=wrap;html=1;fillColor=#ffe6cc;strokeColor=#d79b00;" vertex="1" parent="1">
          <mxGeometry x="140" y="810" width="120" height="80" as="geometry" />
        </mxCell>
        <mxCell id="cAnIm7mQu4dJnn0wb-5Q-28" value="" style="endArrow=classic;html=1;rounded=0;entryX=0;entryY=0;entryDx=0;entryDy=0;exitX=1;exitY=0.5;exitDx=0;exitDy=0;" edge="1" parent="1" source="cAnIm7mQu4dJnn0wb-5Q-27" target="cAnIm7mQu4dJnn0wb-5Q-26">
          <mxGeometry width="50" height="50" relative="1" as="geometry">
            <mxPoint x="210" y="930" as="sourcePoint" />
            <mxPoint x="260" y="880" as="targetPoint" />
          </mxGeometry>
        </mxCell>
        <mxCell id="cAnIm7mQu4dJnn0wb-5Q-29" value="查询" style="edgeLabel;html=1;align=center;verticalAlign=middle;resizable=0;points=[];" vertex="1" connectable="0" parent="cAnIm7mQu4dJnn0wb-5Q-28">
          <mxGeometry x="-0.1686" y="4" relative="1" as="geometry">
            <mxPoint as="offset" />
          </mxGeometry>
        </mxCell>
        <mxCell id="cAnIm7mQu4dJnn0wb-5Q-30" value="mysql" style="rounded=1;whiteSpace=wrap;html=1;fillColor=#e1d5e7;strokeColor=#9673a6;" vertex="1" parent="1">
          <mxGeometry x="670" y="920" width="120" height="60" as="geometry" />
        </mxCell>
        <mxCell id="cAnIm7mQu4dJnn0wb-5Q-34" value="" style="edgeStyle=orthogonalEdgeStyle;rounded=0;orthogonalLoop=1;jettySize=auto;html=1;" edge="1" parent="1" source="cAnIm7mQu4dJnn0wb-5Q-31" target="cAnIm7mQu4dJnn0wb-5Q-33">
          <mxGeometry relative="1" as="geometry" />
        </mxCell>
        <mxCell id="cAnIm7mQu4dJnn0wb-5Q-31" value="对查询进行分词" style="rounded=0;whiteSpace=wrap;html=1;fillColor=#dae8fc;strokeColor=#6c8ebf;" vertex="1" parent="1">
          <mxGeometry x="354" y="970" width="120" height="60" as="geometry" />
        </mxCell>
        <mxCell id="cAnIm7mQu4dJnn0wb-5Q-36" value="" style="edgeStyle=orthogonalEdgeStyle;rounded=0;orthogonalLoop=1;jettySize=auto;html=1;" edge="1" parent="1" source="cAnIm7mQu4dJnn0wb-5Q-33" target="cAnIm7mQu4dJnn0wb-5Q-35">
          <mxGeometry relative="1" as="geometry" />
        </mxCell>
        <mxCell id="cAnIm7mQu4dJnn0wb-5Q-33" value="对每个词进行BM25计算" style="rounded=0;whiteSpace=wrap;html=1;fillColor=#dae8fc;strokeColor=#6c8ebf;" vertex="1" parent="1">
          <mxGeometry x="354" y="1080" width="120" height="60" as="geometry" />
        </mxCell>
        <mxCell id="cAnIm7mQu4dJnn0wb-5Q-35" value="将页面按照优先级进行排序" style="rounded=0;whiteSpace=wrap;html=1;fillColor=#dae8fc;strokeColor=#6c8ebf;" vertex="1" parent="1">
          <mxGeometry x="550" y="1080" width="120" height="60" as="geometry" />
        </mxCell>
        <mxCell id="cAnIm7mQu4dJnn0wb-5Q-37" value="" style="endArrow=classic;html=1;rounded=0;entryX=0.5;entryY=1;entryDx=0;entryDy=0;exitX=1;exitY=0.5;exitDx=0;exitDy=0;" edge="1" parent="1" source="cAnIm7mQu4dJnn0wb-5Q-35" target="cAnIm7mQu4dJnn0wb-5Q-30">
          <mxGeometry width="50" height="50" relative="1" as="geometry">
            <mxPoint x="480" y="1060" as="sourcePoint" />
            <mxPoint x="530" y="1010" as="targetPoint" />
          </mxGeometry>
        </mxCell>
        <mxCell id="cAnIm7mQu4dJnn0wb-5Q-38" value="到mysql中查询页面" style="edgeLabel;html=1;align=center;verticalAlign=middle;resizable=0;points=[];" vertex="1" connectable="0" parent="cAnIm7mQu4dJnn0wb-5Q-37">
          <mxGeometry x="-0.0273" y="-5" relative="1" as="geometry">
            <mxPoint as="offset" />
          </mxGeometry>
        </mxCell>
        <mxCell id="cAnIm7mQu4dJnn0wb-5Q-39" value="" style="endArrow=classic;html=1;rounded=0;entryX=1;entryY=1;entryDx=0;entryDy=0;exitX=0;exitY=0.5;exitDx=0;exitDy=0;" edge="1" parent="1" source="cAnIm7mQu4dJnn0wb-5Q-26" target="cAnIm7mQu4dJnn0wb-5Q-27">
          <mxGeometry width="50" height="50" relative="1" as="geometry">
            <mxPoint x="480" y="1030" as="sourcePoint" />
            <mxPoint x="530" y="980" as="targetPoint" />
          </mxGeometry>
        </mxCell>
        <mxCell id="cAnIm7mQu4dJnn0wb-5Q-40" value="返回页面列表" style="edgeLabel;html=1;align=center;verticalAlign=middle;resizable=0;points=[];" vertex="1" connectable="0" parent="cAnIm7mQu4dJnn0wb-5Q-39">
          <mxGeometry x="0.0403" y="-2" relative="1" as="geometry">
            <mxPoint as="offset" />
          </mxGeometry>
        </mxCell>
        <mxCell id="cAnIm7mQu4dJnn0wb-5Q-41" value="" style="swimlane;startSize=0;" vertex="1" parent="1">
          <mxGeometry x="290" y="1220" width="500" height="300" as="geometry" />
        </mxCell>
        <mxCell id="cAnIm7mQu4dJnn0wb-5Q-43" value="index_%s" style="rounded=1;whiteSpace=wrap;html=1;" vertex="1" parent="cAnIm7mQu4dJnn0wb-5Q-41">
          <mxGeometry x="20" y="50" width="120" height="60" as="geometry" />
        </mxCell>
        <mxCell id="cAnIm7mQu4dJnn0wb-5Q-44" value="index1_%s" style="rounded=1;whiteSpace=wrap;html=1;" vertex="1" parent="cAnIm7mQu4dJnn0wb-5Q-41">
          <mxGeometry x="330" y="50" width="120" height="60" as="geometry" />
        </mxCell>
        <mxCell id="cAnIm7mQu4dJnn0wb-5Q-45" value="index_table_status" style="rounded=1;whiteSpace=wrap;html=1;" vertex="1" parent="cAnIm7mQu4dJnn0wb-5Q-41">
          <mxGeometry x="20" y="190" width="120" height="60" as="geometry" />
        </mxCell>
        <mxCell id="cAnIm7mQu4dJnn0wb-5Q-46" value="page_%s" style="rounded=1;whiteSpace=wrap;html=1;" vertex="1" parent="cAnIm7mQu4dJnn0wb-5Q-41">
          <mxGeometry x="330" y="190" width="120" height="60" as="geometry" />
        </mxCell>
        <mxCell id="cAnIm7mQu4dJnn0wb-5Q-42" value="mysql" style="text;html=1;align=center;verticalAlign=middle;resizable=0;points=[];autosize=1;strokeColor=none;fillColor=none;" vertex="1" parent="1">
          <mxGeometry x="505" y="1218" width="50" height="30" as="geometry" />
        </mxCell>
        <mxCell id="cAnIm7mQu4dJnn0wb-5Q-47" value="" style="swimlane;startSize=0;" vertex="1" parent="1">
          <mxGeometry x="880" y="1220" width="330" height="310" as="geometry" />
        </mxCell>
        <mxCell id="cAnIm7mQu4dJnn0wb-5Q-48" value="分词列表" style="rounded=1;whiteSpace=wrap;html=1;" vertex="1" parent="cAnIm7mQu4dJnn0wb-5Q-47">
          <mxGeometry x="20" y="40" width="120" height="60" as="geometry" />
        </mxCell>
        <mxCell id="cAnIm7mQu4dJnn0wb-5Q-50" value="urls待爬取列表" style="rounded=1;whiteSpace=wrap;html=1;" vertex="1" parent="cAnIm7mQu4dJnn0wb-5Q-47">
          <mxGeometry x="190" y="40" width="120" height="60" as="geometry" />
        </mxCell>
        <mxCell id="cAnIm7mQu4dJnn0wb-5Q-51" value="all_urls集合" style="rounded=1;whiteSpace=wrap;html=1;" vertex="1" parent="cAnIm7mQu4dJnn0wb-5Q-47">
          <mxGeometry x="20" y="210" width="120" height="60" as="geometry" />
        </mxCell>
        <mxCell id="cAnIm7mQu4dJnn0wb-5Q-52" value="visited_urls集合" style="rounded=1;whiteSpace=wrap;html=1;" vertex="1" parent="cAnIm7mQu4dJnn0wb-5Q-47">
          <mxGeometry x="190" y="210" width="120" height="60" as="geometry" />
        </mxCell>
      </root>
    </mxGraphModel>
  </diagram>
</mxfile>
